# AST/ASF file generated using VICON BodyLanguage
# -----------------------------------------------
:version 1.10
:name VICON
:units
  mass 1.0
  length 0.45
  angle deg
:documentation
   .ast/.asf automatically generated from VICON data using
   VICON BodyBuilder and BodyLanguage model FoxedUp or BRILLIANT.MOD
:root
   order TX TY TZ RX RY RZ
   axis XYZ
   position 0 0 0  
   orientation 0 0 0 
:bonedata
  begin
     id 1 
     name lhipjoint
     direction 0.521689 -0.742065 0.420928 
     length 2.47002 
     axis 0 0 0  XYZ
  end
  begin
     id 2 
     name lfemur
     direction 0.34202 -0.939693 0  
     length 7.24654  
     axis 0 0 20  XYZ
    dof rx ry rz
    limits (-160.0 20.0)
           (-70.0 70.0)
           (-60.0 70.0)
  end
  begin
     id 3 
     name ltibia
     direction 0.34202 -0.939693 0   
     length 8.04849   
     axis 0 0 20   XYZ
    dof rx
    limits (-10.0 170.0)
  end
  begin
     id 4 
     name lfoot
     direction 0.0745411 -0.2048 0.975961   
     length 1.72367   
     axis -90 7.62852e-016 20   XYZ
    dof rx rz
    limits (-45.0 90.0)
           (-70.0 20.0)
  end
  begin
     id 5 
     name ltoes
     direction 1.53556e-011 -4.21901e-011 1   
     length 0.87311   
     axis -90 7.62852e-016 20   XYZ
    dof rx
    limits (-90.0 20.0)
  end
  begin
     id 6 
     name rhipjoint
     direction -0.52849 -0.738415 0.418857   
     length 2.48223  
     axis 0 0 0  XYZ 
  end
  begin
     id 7 
     name rfemur
     direction -0.34202 -0.939693 0   
     length 7.15571   
     axis 0 0 -20   XYZ
    dof rx ry rz
    limits (-160.0 20.0)
           (-70.0 70.0)
           (-70.0 60.0)
  end
  begin
     id 8 
     name rtibia
     direction -0.34202 -0.939693 0   
     length 7.81659   
     axis 0 0 -20   XYZ
    dof rx
    limits (-10.0 170.0)
 end
 begin
     id 9 
     name rfoot
     direction -0.0917348 -0.252039 0.963359   
     length 1.84382  
     axis -90 -7.62852e-016 -20   XYZ
    dof rx rz
    limits (-45.0 90.0)
           (-20.0 70.0)
  end
  begin
     id 10 
     name rtoes
     direction -1.53551e-011 -4.21879e-011 1   
     length 0.927771   
     axis -90 -7.62852e-016 -20   XYZ
    dof rx
    limits (-90.0 20.0)
  end
  begin
     id 11 
     name lowerback
     direction 0.00583058 0.999822 0.0179296   
     length 2.1429   
     axis 0 0 0   XYZ
    dof rx ry rz
    limits (-20.0 45.0)
           (-30.0 30.0)
           (-30.0 30.0)
  end
  begin
     id 12 
     name upperback
     direction -0.0137999 0.999752 -0.0175071   
     length 2.14252   
     axis 0 0 0   XYZ
    dof rx ry rz
    limits (-20.0 45.0)
           (-30.0 30.0)
           (-30.0 30.0)
  end
  begin
     id 13 
     name thorax
     direction -0.0158036 0.99955 -0.0254909   
     length 2.1383   
     axis 0 0 0   XYZ
    dof rx ry rz
    limits (-20.0 45.0)
           (-30.0 30.0)
           (-30.0 30.0)
  end
  begin
     id 14 
     name lowerneck
     direction -0.0101179 0.999403 -0.0330262   
     length 1.65808   
     axis 0 0 0   XYZ
    dof rx ry rz
    limits (-20.0 45.0)
           (-30.0 30.0)
           (-30.0 30.0)
  end
  begin
     id 15 
     name upperneck
     direction 0.0497734 0.995978 -0.074501   
     length 1.5897   
     axis 0 0 0   XYZ
    dof rx ry rz
    limits (-20.0 45.0)
           (-30.0 30.0)
           (-30.0 30.0)
  end
  begin
     id 16
     name head
     direction 0.0189524 0.999519 -0.0245438  
     length 1.74024  
     axis 0 0 0   XYZ
    dof rx ry rz
    limits (-20.0 45.0)
           (-30.0 30.0)
           (-30.0 30.0)
  end
  begin
     id 17 
     name lclavicle
     direction 0.945604 0.324422 0.0241537  
     length 3.59089  
     axis 0 0 0   XYZ
    dof ry rz
    limits (-20.0 10.0)
           (0.0 20.0)
  end
  begin
     id 18 
     name lhumerus
     direction 1 -4.48964e-011 -2.63524e-027   
     length 5.2391   
     axis 180 -30 -90   XYZ
    dof rx ry rz
    limits (-60.0 90.0)
           (-90.0 90.0)
           (-90.0 90.0)
  end
  begin
     id 19
     name lradius
     direction 1 -4.48969e-011 3.86978e-028   
     length 3.31467   
     axis 180 -30 -90   XYZ
    dof rx
    limits (-10.0 170.0)
  end
  begin
     id 20
     name lwrist
     direction 1 -4.48963e-011 7.20928e-028   
     length 1.65734   
     axis -5.52449e-016 90 90   XYZ
    dof ry
    limits (-180.0 0.0)
 end
  begin
     id 21 
     name lhand
     direction 1 -4.48964e-011 1.44186e-027   
     length 0.9659   
     axis -9.20027e-016 90 90   XYZ
    dof rx rz
    limits (-90.0 90.0)
           (-45.0 45.0)
  end
  begin
     id 22 
     name lfingers
     direction 1 -4.48965e-011 2.88371e-027   
     length 0.778733   
     axis -1.84005e-015 90 90   XYZ
    dof rx
    limits (0.0 90.0)
  end
  begin
     id 23
     name lthumb
     direction 0.707107 -6.34931e-011 0.707107   
     length 1.11811   
     axis -90 45 2.85299e-015   XYZ
    dof rx rz
    limits (-45.0 45.0)
           (-45.0 45.0)
  end
  begin
     id 24 
     name rclavicle
     direction -0.923762 0.370785 0.0958234   
     length 3.54196  
     axis 0 0 0   XYZ 
    dof ry rz
    limits (-10.0 20.0)
           (-20.0 0.0)
  end
  begin
     id 25 
     name rhumerus
     direction -1 -4.48966e-011 1.18702e-017  
     length 5.30252   
     axis 180 30 90   XYZ
    dof rx ry rz
    limits (-90.0 60.0)
           (-90.0 90.0)
           (-90.0 90.0)
  end
  begin
     id 26 
     name rradius
     direction -1 -4.48966e-011 4.46736e-027   
     length 3.67875   
     axis 180 30 90   XYZ
    dof rx
    limits (-10.0 170.0)
  end
  begin
     id 27 
     name rwrist
     direction -1 -4.48966e-011 7.20928e-028   
     length 1.83937   
     axis -5.52449e-016 -90 -90   XYZ
    dof ry
    limits (-180.0 0.0)
  end
  begin
     id 28
     name rhand
     direction -1 -4.48973e-011 1.44186e-027   
     length 0.594811   
     axis -9.20027e-016 -90 -90   XYZ
    dof rx rz
    limits (-90.0 90.0)
           (-45.0 45.0)
  end
  begin
     id 29
     name rfingers
     direction -1 -4.48963e-011 2.88371e-027   
     length 0.479552   
     axis -1.84005e-015 -90 -90   XYZ
    dof rx
    limits (0.0 90.0)
  end
  begin
     id 30
     name rthumb
     direction -0.707107 -6.34932e-011 0.707107   
     length 0.688544   
     axis -90 -45 -2.85299e-015   XYZ
    dof rx rz
    limits (-45.0 45.0)
           (-45.0 45.0)
  end
:hierarchy
  begin
    root lhipjoint rhipjoint lowerback
    lhipjoint lfemur
    lfemur ltibia
    ltibia lfoot
    lfoot ltoes
    rhipjoint rfemur
    rfemur rtibia
    rtibia rfoot
    rfoot rtoes
    lowerback upperback
    upperback thorax
    thorax lowerneck lclavicle rclavicle
    lowerneck upperneck
    upperneck head
    lclavicle lhumerus
    lhumerus lradius
    lradius lwrist
    lwrist lhand lthumb
    lhand lfingers
    rclavicle rhumerus
    rhumerus rradius
    rradius rwrist
    rwrist rhand rthumb
    rhand rfingers
  end

#!OML:ASF E:\acrobat2\Project_11_07_03\Capture day 1\Session 1\Acrobat.ASF
:FULLY-SPECIFIED
:DEGREES
636
root 11.9549 18.5688 27.0363 395.439 -81.5942 -30.7717
lowerback -1.74785 0.0100663 1.18111
upperback -3.61132 -0.0308516 0.358513
thorax -2.72616 -0.0640198 -0.292219
lowerneck 1.24896 -3.10952 0.304555
upperneck -1.51351 -4.11251 2.44469
head -0.61901 -2.08291 0.730306
rclavicle 7.1314e-015 -1.39149e-014
rhumerus -20.355 -40.5543 1.58161
rradius 21.3415
rwrist 6.33855
rhand -18.5602 -52.5582
rfingers 7.12502
rthumb 7.72962 277.603
lclavicle 7.1314e-015 -1.39149e-014
lhumerus 4.44729 17.0683 4.69913
lradius 20.673
lwrist 5.9984
lhand -14.9587 -5.66889
lfingers 7.12502
lthumb 11.2046 24.0119
rfemur 6.4859 18.2445 3.19484
rtibia -1.50503
rfoot -28.8452 -43.3529
rtoes 48.7459
lfemur 10.2849 -16.5568 -10.0652
ltibia -7.65694
lfoot -203.191 175.201
ltoes 46.6101
637
root 11.948 18.564 27.0356 394.004 -81.4403 -29.4068
lowerback -1.63905 -0.0163902 1.23835
upperback -3.67273 -0.0685332 0.156147
thorax -2.85179 -0.0885131 -0.53149
lowerneck -0.204744 -2.6052 -0.992818
upperneck 0.781213 -3.53024 4.40822
head 0.376447 -1.76199 1.50966
rclavicle -5.64051e-015 5.96354e-015
rhumerus -20.6292 -39.1269 1.23198
rradius 21.5961
rwrist 5.07485
rhand -18.4339 -52.4344
rfingers 7.12502
rthumb 7.85152 277.731
lclavicle -5.64051e-015 5.96354e-015
lhumerus 4.47026 16.5004 4.52645
lradius 20.7498
lwrist 6.35725
lhand -14.7557 -5.60324
lfingers 7.12502
lthumb 11.4004 24.0668
rfemur 6.76191 18.3703 3.14122
rtibia -1.6023
rfoot -29.0922 -43.3772
rtoes 48.8805
lfemur 10.269 -16.3921 -10.1011
ltibia -7.5757
lfoot -202.6 174.932
ltoes 47.1582
638
root 11.9427 18.56 27.0369 392.503 -81.2293 -27.8993
lowerback -1.63627 -0.0324107 1.3794
upperback -3.72391 -0.0954251 -0.085639
thorax -2.90782 -0.110594 -0.858478
lowerneck -0.167058 -2.62633 -0.977609
upperneck 0.903612 -3.56837 4.62833
head 0.413477 -1.78036 1.57654
rclavicle -2.48978e-014 1.03368e-014
rhumerus -21.0861 -39.7713 1.52385
rradius 21.5003
rwrist 5.84487
rhand -18.2555 -51.8584
rfingers 7.12502
rthumb 8.02374 278.314
lclavicle -2.48978e-014 1.03368e-014
lhumerus 4.54559 15.6697 4.31193
lradius 20.9484
lwrist 6.96043
lhand -14.7579 -5.38557
lfingers 7.12502
lthumb 11.3982 24.2846
rfemur 6.98596 18.4048 3.05022
rtibia -1.73703
rfoot -29.5885 -43.4138
rtoes 48.4896
lfemur 10.2157 -16.8209 -10.2398
ltibia -7.46976
lfoot -202.673 175.057
ltoes 46.9463
639
root 11.9377 18.5558 27.0366 391.177 -81.1477 -26.5956
lowerback -1.68383 -0.0154659 1.2816
upperback -3.70995 -0.0762362 -0.209303
thorax -2.86611 -0.0997088 -0.930989
lowerneck 1.20663 -3.04761 0.0277839
upperneck -0.869913 -4.04643 3.34058
head -0.393189 -2.05072 1.04173
rclavicle 1.05356e-014 0
rhumerus -21.4217 -38.8477 1.55723
rradius 21.758
rwrist 4.93966
rhand -18.1244 -51.9444
rfingers 7.12502
rthumb 8.15028 278.233
lclavicle 1.05356e-014 0
lhumerus 4.50327 14.9021 4.23746
lradius 21.2038
lwrist 7.51871
lhand -14.9267 -5.07176
lfingers 7.12502
lthumb 11.2354 24.6074
rfemur 7.10728 18.1827 2.79489
rtibia -1.7651
rfoot -29.7394 -43.2952
rtoes 48.2385
lfemur 10.2604 -17.3812 -10.4948
ltibia -7.40681
lfoot -203.05 175.327
ltoes 46.4314
640
root 11.9324 18.5509 27.0354 390.446 -81.1052 -25.9276
lowerback -1.65839 -0.00211062 1.2343
upperback -3.71539 -0.0598566 -0.289337
thorax -2.88566 -0.0915845 -0.986833
lowerneck 0.417899 -2.82802 -2.13798
upperneck 0.496404 -3.8361 5.68873
head 0.244924 -1.92952 2.13355
rclavicle 3.51352e-014 -5.56597e-015
rhumerus -21.4618 -38.4624 1.32399
rradius 21.8573
rwrist 4.58208
rhand -18.0437 -51.9545
rfingers 7.12502
rthumb 8.22816 278.226
lclavicle 3.51352e-014 -5.56597e-015
lhumerus 4.5482 15.2563 4.43174
lradius 21.146
lwrist 6.87267
lhand -14.8403 -5.13325
lfingers 7.12502
lthumb 11.3188 24.5413
rfemur 7.20379 18.0264 2.64092
rtibia -1.72343
rfoot -29.6489 -43.1229
rtoes 48.3783
lfemur 10.3033 -17.3712 -10.5575
ltibia -7.3755
lfoot -202.771 175.427
ltoes 46.404
641
root 11.9274 18.5452 27.0349 389.921 -81.0328 -25.4279
lowerback -1.6657 0.0152723 1.28452
upperback -3.72359 -0.0392143 -0.394367
thorax -2.88979 -0.0844995 -1.12309
lowerneck 0.419574 -2.6468 -0.988726
upperneck 0.582209 -3.58433 4.76368
head 0.219366 -1.80022 1.6325
rclavicle 6.21202e-015 -7.95139e-016
rhumerus -21.4453 -39.575 1.26945
rradius 21.601
rwrist 5.67854
rhand -18.2189 -52.0057
rfingers 7.12502
rthumb 8.05906 278.168
lclavicle 6.21202e-015 -7.95139e-016
lhumerus 5.16576 18.351 5.39841
lradius 20.4376
lwrist 3.44659
lhand -14.2837 -5.63205
lfingers 7.12502
lthumb 11.8556 24.0123
rfemur 7.26224 17.8717 2.56652
rtibia -1.66233
rfoot -29.3537 -43.0908
rtoes 48.1106
lfemur 10.2166 -16.828 -10.4457
ltibia -7.29825
lfoot -201.935 175.19
ltoes 46.7878
